<svg width="41" height="32" viewBox="0 0 41 32" fill="none" xmlns="http://www.w3.org/2000/svg">
<path d="M12.8465 25.942C13.1367 25.6518 13.1367 25.2054 12.8465 24.9152L4.07422 16.1429L12.8465 7.37054C13.1367 7.08036 13.1367 6.63393 12.8465 6.34375L11.7305 5.22768C11.4403 4.9375 10.9939 4.9375 10.7037 5.22768L0.301897 15.6295C0.0117188 15.9196 0.0117188 16.3661 0.301897 16.6562L10.7037 27.058C10.9939 27.3482 11.4403 27.3482 11.7305 27.058L12.8465 25.942ZM26.0385 2.125C26.1501 1.74554 25.9269 1.34375 25.5474 1.23214L24.1635 0.852677C23.8064 0.741071 23.4046 0.964285 23.293 1.34375L14.9671 30.1607C14.8555 30.5402 15.0787 30.942 15.4581 31.0536L16.8421 31.433C17.1992 31.5446 17.601 31.3214 17.7126 30.942L26.0385 2.125ZM40.7037 16.6562C40.9939 16.3661 40.9939 15.9196 40.7037 15.6295L30.3019 5.22768C30.0117 4.9375 29.5653 4.9375 29.2751 5.22768L28.159 6.34375C27.8689 6.63393 27.8689 7.08036 28.159 7.37054L36.9314 16.1429L28.159 24.9152C27.8689 25.2054 27.8689 25.6518 28.159 25.942L29.2751 27.058C29.5653 27.3482 30.0117 27.3482 30.3019 27.058L40.7037 16.6562Z" fill="#482BE7"/>
<path d="M12.8465 25.942L12.493 25.5884L12.493 25.5884L12.8465 25.942ZM12.8465 24.9152L12.493 25.2687L12.493 25.2687L12.8465 24.9152ZM4.07422 16.1429L3.72067 15.7893L3.36711 16.1429L3.72067 16.4964L4.07422 16.1429ZM12.8465 7.37054L13.2001 7.72409L13.2001 7.72409L12.8465 7.37054ZM12.8465 6.34375L12.493 6.6973L12.493 6.6973L12.8465 6.34375ZM11.7305 5.22768L12.084 4.87412L12.084 4.87412L11.7305 5.22768ZM10.7037 5.22768L10.3501 4.87412L10.3501 4.87412L10.7037 5.22768ZM0.301897 15.6295L-0.051656 15.2759L-0.0516564 15.2759L0.301897 15.6295ZM0.301897 16.6562L-0.0516564 17.0098L-0.051656 17.0098L0.301897 16.6562ZM10.7037 27.058L10.3501 27.4116L10.3501 27.4116L10.7037 27.058ZM11.7305 27.058L11.3769 26.7045L11.3769 26.7045L11.7305 27.058ZM26.0385 2.125L25.5588 1.98391L25.5582 1.98621L26.0385 2.125ZM25.5474 1.23214L25.6885 0.752377L25.6797 0.74994L25.5474 1.23214ZM24.1635 0.852677L24.0144 1.32992L24.0228 1.33255L24.0313 1.33488L24.1635 0.852677ZM23.293 1.34375L22.8133 1.20266L22.8126 1.20496L23.293 1.34375ZM14.9671 30.1607L15.4468 30.3018L15.4474 30.2995L14.9671 30.1607ZM15.4581 31.0536L15.317 31.5333L15.3259 31.5358L15.4581 31.0536ZM16.8421 31.433L16.9912 30.9558L16.9828 30.9532L16.9743 30.9508L16.8421 31.433ZM17.7126 30.942L18.1923 31.083L18.193 31.0807L17.7126 30.942ZM40.7037 16.6562L41.0572 17.0098L41.0572 17.0098L40.7037 16.6562ZM40.7037 15.6295L41.0572 15.2759L41.0572 15.2759L40.7037 15.6295ZM30.3019 5.22768L29.9483 5.58123L29.9483 5.58123L30.3019 5.22768ZM29.2751 5.22768L28.9216 4.87412L28.9216 4.87412L29.2751 5.22768ZM28.159 6.34375L28.5126 6.6973L28.5126 6.6973L28.159 6.34375ZM36.9314 16.1429L37.2849 16.4964L37.6385 16.1429L37.2849 15.7893L36.9314 16.1429ZM28.159 24.9152L28.5126 25.2687L28.5126 25.2687L28.159 24.9152ZM28.159 25.942L28.5126 25.5884L28.5126 25.5884L28.159 25.942ZM29.2751 27.058L28.9216 27.4116L28.9216 27.4116L29.2751 27.058ZM30.3019 27.058L29.9483 26.7045L29.9483 26.7045L30.3019 27.058ZM13.2001 26.2955C13.6855 25.8101 13.6855 25.0471 13.2001 24.5616L12.493 25.2687C12.5879 25.3636 12.5879 25.4935 12.493 25.5884L13.2001 26.2955ZM13.2001 24.5616L4.42777 15.7893L3.72067 16.4964L12.493 25.2687L13.2001 24.5616ZM4.42777 16.4964L13.2001 7.72409L12.493 7.01698L3.72067 15.7893L4.42777 16.4964ZM13.2001 7.72409C13.6855 7.23865 13.6855 6.47564 13.2001 5.9902L12.493 6.6973C12.5879 6.79222 12.5879 6.92206 12.493 7.01698L13.2001 7.72409ZM13.2001 5.9902L12.084 4.87412L11.3769 5.58123L12.493 6.6973L13.2001 5.9902ZM12.084 4.87412C11.5986 4.38868 10.8356 4.38869 10.3501 4.87412L11.0572 5.58123C11.1522 5.48631 11.282 5.48632 11.3769 5.58123L12.084 4.87412ZM10.3501 4.87412L-0.051656 15.2759L0.655451 15.983L11.0572 5.58123L10.3501 4.87412ZM-0.0516564 15.2759C-0.537097 15.7614 -0.537097 16.5244 -0.0516564 17.0098L0.655451 16.3027C0.560534 16.2078 0.560534 16.0779 0.655451 15.983L-0.0516564 15.2759ZM-0.051656 17.0098L10.3501 27.4116L11.0572 26.7045L0.655451 16.3027L-0.051656 17.0098ZM10.3501 27.4116C10.8356 27.897 11.5986 27.897 12.084 27.4116L11.3769 26.7045C11.282 26.7994 11.1522 26.7994 11.0572 26.7045L10.3501 27.4116ZM12.084 27.4116L13.2001 26.2955L12.493 25.5884L11.3769 26.7045L12.084 27.4116ZM26.5182 2.26608C26.709 1.61735 26.3285 0.940697 25.6885 0.752458L25.4064 1.71182C25.5253 1.7468 25.5912 1.87372 25.5588 1.98391L26.5182 2.26608ZM25.6797 0.74994L24.2957 0.370475L24.0313 1.33488L25.4152 1.71434L25.6797 0.74994ZM24.3126 0.375436C23.6703 0.174693 22.9982 0.574126 22.8133 1.20266L23.7727 1.48483C23.7897 1.42689 23.8295 1.37891 23.8809 1.35005C23.9326 1.32105 23.9804 1.31931 24.0144 1.32992L24.3126 0.375436ZM22.8126 1.20496L14.4867 30.0219L15.4474 30.2995L23.7733 1.48253L22.8126 1.20496ZM14.4874 30.0196C14.2966 30.6684 14.677 31.345 15.3171 31.5333L15.5992 30.5739C15.4803 30.5389 15.4143 30.412 15.4468 30.3018L14.4874 30.0196ZM15.3259 31.5358L16.7099 31.9152L16.9743 30.9508L15.5904 30.5714L15.3259 31.5358ZM16.6929 31.9103C17.3353 32.111 18.0074 31.7116 18.1923 31.083L17.2329 30.8009C17.2159 30.8588 17.176 30.9068 17.1247 30.9357C17.073 30.9647 17.0252 30.9664 16.9912 30.9558L16.6929 31.9103ZM18.193 31.0807L26.5189 2.26378L25.5582 1.98621L17.2323 30.8032L18.193 31.0807ZM41.0572 17.0098C41.5427 16.5244 41.5427 15.7614 41.0572 15.2759L40.3501 15.983C40.445 16.0779 40.445 16.2078 40.3501 16.3027L41.0572 17.0098ZM41.0572 15.2759L30.6555 4.87412L29.9483 5.58123L40.3501 15.983L41.0572 15.2759ZM30.6555 4.87412C30.17 4.38868 29.407 4.38869 28.9216 4.87412L29.6287 5.58123C29.7236 5.48631 29.8534 5.48632 29.9483 5.58123L30.6555 4.87412ZM28.9216 4.87412L27.8055 5.9902L28.5126 6.6973L29.6287 5.58123L28.9216 4.87412ZM27.8055 5.9902C27.32 6.47564 27.32 7.23865 27.8055 7.72409L28.5126 7.01698C28.4177 6.92206 28.4177 6.79222 28.5126 6.6973L27.8055 5.9902ZM27.8055 7.72409L36.5778 16.4964L37.2849 15.7893L28.5126 7.01698L27.8055 7.72409ZM36.5778 15.7893L27.8055 24.5616L28.5126 25.2687L37.2849 16.4964L36.5778 15.7893ZM27.8055 24.5616C27.32 25.0471 27.32 25.8101 27.8055 26.2955L28.5126 25.5884C28.4177 25.4935 28.4177 25.3636 28.5126 25.2687L27.8055 24.5616ZM27.8055 26.2955L28.9216 27.4116L29.6287 26.7045L28.5126 25.5884L27.8055 26.2955ZM28.9216 27.4116C29.407 27.897 30.17 27.897 30.6555 27.4116L29.9483 26.7045C29.8534 26.7994 29.7236 26.7994 29.6287 26.7045L28.9216 27.4116ZM30.6555 27.4116L41.0572 17.0098L40.3501 16.3027L29.9483 26.7045L30.6555 27.4116Z" fill="black"/>
</svg>
