<svg width="41" height="41" viewBox="0 0 41 41" fill="none" xmlns="http://www.w3.org/2000/svg">
<path d="M36.5491 0.714283C35.4554 0.714283 34.4286 1.20536 33.6473 1.91964L19.4063 14.8438C18.0893 16.0491 17.3527 17.7902 17.3527 19.5759C17.3527 23.3259 20.433 26.5402 24.2054 26.5402C26.1027 26.5402 27.7098 25.7812 29.0714 24.5089C31.8616 21.942 37.7098 11.0268 39.4509 7.72321C39.9866 6.67411 40.4554 5.53571 40.4554 4.35268C40.4554 2.23214 38.5804 0.714283 36.5491 0.714283ZM16.2589 23.7946C11.2366 24.0179 8.26786 24.9107 6.37054 29.8661C6.16964 30.3795 5.70089 30.692 5.14286 30.692C4.20536 30.692 1.32589 28.3929 0.5 27.8348C0.5 34.6875 3.78125 40.7143 11.3482 40.7143C17.7321 40.7143 22.1518 36.3393 22.0179 29.9777L21.9955 28.3929C19.5402 27.7455 17.4196 26.0491 16.2589 23.7946Z" fill="#482BE7"/>
</svg>
