<svg width="369" height="355" viewBox="0 0 369 355" fill="none" xmlns="http://www.w3.org/2000/svg">
<path d="M122.931 86.4046C122.931 86.1987 122.52 85.5809 122.314 85.375L17.091 32.6607C14.2081 31.2193 11.3253 29.572 8.03069 29.572C2.47098 29.572 0 34.308 0 39.4559V274.199C0 280.377 4.53013 287.79 10.2958 290.672L106.046 338.651C108.105 339.68 110.371 340.298 112.842 340.298C119.843 340.298 122.931 334.326 122.931 327.943V86.4046ZM136.11 107.202V230.751L246.069 285.525L136.11 107.202ZM369 110.908L257.806 291.496L348.614 336.797C351.497 338.445 354.792 339.474 358.292 339.474C365.088 339.474 369 334.738 369 327.943V110.908ZM368.382 86.1987C368.382 85.5809 367.97 85.1691 367.559 84.9632L256.158 29.3661C254.511 28.5424 252.658 28.1306 250.805 28.1306C246.48 28.1306 242.362 30.1897 240.097 33.8962L173.381 142.414L253.688 272.964C261.924 259.785 368.382 87.0223 368.382 86.1987Z" fill="#EBEAED"/>
</svg>
